<svg width="528" height="1707" viewBox="0 0 528 1707" fill="none" xmlns="http://www.w3.org/2000/svg">
<g clip-path="url(#clip0_302_15)">
<path d="M314.615 7.49085C303.412 17.3573 294.877 21.3573 285.141 21.3573H277.539L274.605 31.3572C271.004 43.4904 268.203 44.6903 265.269 35.0905C263.669 29.6239 262.735 28.6906 258.067 27.0906C248.731 23.8906 242.463 30.1572 241.663 43.3569L241.129 51.4902L247.398 53.8901C253.533 56.2902 253.666 56.2902 257.534 53.4902C261.401 50.5569 266.069 49.757 267.27 51.8903C267.67 52.5569 267.536 54.8235 266.736 56.8235C266.069 58.9568 264.336 64.9567 262.735 70.2899C260.335 78.5565 259.668 79.6232 257.4 79.0898C255.8 78.6898 254.733 77.2231 254.733 75.4899C254.733 70.4232 251.532 66.29 246.064 64.4233C241.263 62.8234 240.463 62.8234 237.395 65.09C232.194 68.9567 228.593 78.8231 230.193 84.9564C231.26 89.3563 232.194 90.2897 236.995 92.0229C242.33 93.7562 242.863 93.7562 246.731 90.9563C250.865 87.8896 256.067 87.8896 256.067 90.9563C256.067 92.423 249.265 116.289 248.598 117.089C248.465 117.356 247.131 117.223 245.797 116.823C244.197 116.289 242.73 113.756 241.663 110.156C240.329 104.823 239.529 104.156 234.061 102.29L228.059 100.156L224.058 104.156C219.257 108.956 216.723 116.823 217.923 123.089C218.724 127.223 219.524 128.022 224.725 129.889C230.593 131.756 230.86 131.756 234.594 128.556C237.795 125.889 239.129 125.489 241.93 126.689C243.797 127.356 245.131 128.689 244.73 129.622C244.464 130.556 242.597 136.689 240.596 143.356C238.729 149.889 236.862 155.755 236.462 156.289C235.128 158.555 232.194 155.355 230.727 150.022C229.26 144.689 228.46 144.022 222.991 142.156C217.123 140.022 216.856 140.156 213.656 142.956C208.721 147.622 206.72 152.555 206.72 159.889C206.72 166.422 206.854 166.689 211.522 168.689C217.79 171.355 219.524 171.222 223.925 168.155C227.793 165.355 234.061 165.755 232.994 168.555C232.727 169.355 230.727 175.888 228.726 182.955C226.726 190.155 224.725 196.021 224.192 196.021C222.058 195.888 220.324 193.488 218.59 188.155C216.856 182.822 216.19 182.155 210.722 180.555C205.12 178.955 204.587 178.955 201.519 181.755C197.385 185.622 194.717 192.022 194.717 198.288C194.717 204.955 195.651 206.021 202.453 208.155C207.654 209.621 208.454 209.621 211.922 206.955C215.389 204.421 221.391 204.155 221.391 206.421C221.391 206.955 219.524 213.488 217.123 221.088C214.056 231.088 212.455 234.688 210.988 234.421C209.788 234.154 208.721 232.288 208.454 230.154C207.654 223.888 205.654 221.488 200.185 219.888C195.651 218.555 194.584 218.688 191.517 220.821C186.849 224.288 184.048 230.554 184.048 237.754C184.048 244.287 185.115 245.487 192.05 247.887C196.051 249.221 197.118 249.087 200.319 246.688C204.453 243.621 209.388 243.088 209.388 245.754C209.388 246.688 207.654 252.954 205.52 259.621L201.786 271.887L209.388 276.554C217.123 281.354 225.392 291.354 225.392 296.02C225.392 297.22 226.059 298.82 226.992 299.753C230.593 303.353 230.727 354.686 227.526 536.017C227.126 555.483 226.592 598.282 226.192 631.349C225.792 664.281 225.125 705.081 224.725 722.014C224.325 738.814 223.658 774.547 223.392 801.346C222.591 865.745 221.258 957.877 220.724 978.677C220.457 987.877 220.057 1015.08 219.791 1039.21L219.39 1082.94L212.055 1089.74C208.054 1093.48 200.319 1099.34 194.851 1102.94C154.84 1129.07 123.899 1111.34 104.961 1051.08C97.2252 1026.68 89.89 985.877 87.2226 953.344C85.7556 935.211 86.0223 935.344 74.1525 946.678C68.5511 952.144 60.549 961.477 56.4146 967.611C42.5443 988.677 37.0762 1008.14 37.0762 1038.01C37.0762 1068.41 41.7441 1092.14 59.3487 1153.34C78.0202 1217.87 82.0212 1237.74 81.8879 1265.34C81.7545 1290.81 79.2205 1300.01 66.1504 1324.01C31.6081 1387.34 14.5369 1430.4 3.73409 1482C1.06673 1494.94 0.666626 1500.4 0.666626 1527.34C0.666626 1556.67 0.799995 1558.67 4.40094 1572C8.80209 1588.27 17.471 1607.6 25.8732 1619.2C38.4099 1636.53 62.4161 1657.07 84.5552 1669.2C121.365 1689.6 176.313 1701.47 252.066 1705.33C377.965 1711.73 452.251 1694.8 494.529 1650C527.471 1615.07 536.007 1565.2 520.536 1496C511.067 1452.94 493.996 1409.07 462.521 1345.87L446.116 1313.07V1300.14C446.25 1289.07 446.917 1285.47 451.051 1273.34C453.718 1265.61 460.387 1249.07 465.855 1236.67C478.792 1207.21 484.793 1190.81 489.861 1172.01C493.729 1157.61 493.996 1155.21 493.996 1132.67C493.996 1103.48 491.995 1094.01 480.125 1070.01C472.79 1055.21 465.188 1043.08 467.455 1050.01C467.855 1051.48 468.922 1057.74 469.723 1063.88C475.857 1110.94 443.049 1175.87 403.305 1195.61C394.103 1200.14 391.569 1200.67 381.166 1201.07C370.363 1201.61 368.763 1201.34 360.894 1197.61C345.824 1190.54 333.42 1176.54 322.884 1154.67C319.817 1148.41 316.349 1142.41 315.015 1141.34C313.815 1140.27 312.615 1138.27 312.481 1136.81C312.215 1133.47 310.748 1042.01 310.081 979.344C308.881 877.745 308.08 818.813 307.413 779.347C307.147 757.347 306.48 711.481 306.08 677.348C305.68 643.215 305.013 603.349 304.746 588.683C303.679 537.35 302.079 390.952 302.212 354.419C302.479 322.286 302.879 315.62 305.413 303.087C309.414 282.954 316.082 269.487 327.952 257.487L337.155 248.154L334.087 231.088C332.353 221.755 330.219 206.821 329.152 198.021C326.618 174.688 327.019 87.0897 329.819 44.157C332.887 -2.50902 333.02 0.0242997 327.685 0.0242997C324.218 0.0242997 321.417 1.62428 314.615 7.49085Z" fill="#BF00FF"/>
</g>
<defs>
<clipPath id="clip0_302_15">
<rect width="528" height="1707" fill="white"/>
</clipPath>
</defs>
</svg>
